<?xml version='1.0' encoding='utf-8'?>
<svg xmlns="http://www.w3.org/2000/svg" id="Calque_1" data-name="Calque 1" viewBox="0 0 596.5 513">
  <defs>
    <style>
      .cls-1 {
        fill: #37ab4f;
      }

      .cls-2 {
        fill: #9dd5e6;
      }

      .cls-3 {
        fill: #e52629;
      }

      .cls-4 {
        fill: #32a0da;
      }

      .cls-5 {
        fill: #2ea0da;
      }

      .cls-6 {
        fill: #fae923;
      }

      .cls-7 {
        fill: #9b4d98;
      }

      .cls-8 {
        fill: #1d1d1d;
      }
    </style>
  </defs>
  <g id="id_1" title="body">
    <path id="id_2" class="cls-8" d="M281.63,47.57c.13.06.12.74.48.83,3.3.78,6.87-.76,10.29,2.48,1.05,1,3.22,4.64,4.19,5.55,1.59,1.48,5.5,2.86,7.36,4.05,3.46,2.21,7.11,6.6,10.27,9.7,11.31,11.07,20.12,17.59,21.93,34.55.6,5.58-1.28,18.73-3.33,24.05-1.97,5.13-5.08,6.15-8.37,9.62-3.64,3.84-6.73,8.33-10.45,12.04-2.4,2.38-5.78,4.38-7.76,7.23-.15.38.71.07.97.62,1.98,4.14,3.34,9.17,5.55,13.21.44.81,2.01.94,1.49,2.89l15.19.56.27-1.53c2.43.38,4.84,1.09,7.3,1.44,14.58,2.05,29.08,3.59,40.66,13.81,1.96,1.73,2.79,3.64,4.29,5.21,5.64,5.95,7.48,7.13,11.43,14.56,2.73,5.14,5.56,6.29,8.76,10.23,4.54,5.6,5.78,9.47,8.75,15.74,5.16,10.9,9.92,20.25,12.7,32.29,2.12,9.21,2.19,35.89.49,45.44-.14.77-1.23,4.81-1.48,5.4-.47,1.1-3.95,2.49-5.24,2.44-2.79-.11-4.1-3.79-7-2.57-.89,7.28,1.28,13.89.79,21.29-.26,3.96-1.07,6.81-3.52,9.98-.38.49-4.32,4.25-4.61,4.39-2.92,1.38-9.67-.72-12.14-2.62-.52-.4-.73-1.25-1.29-1.71-1.99-1.67-4.11-2.07-4.46-5.04-.86-7.39,2.48-13.57,6.29-19.73,3.09-5,7.31-7.98,10.69-12.3.58-.74,1.69-1.97,1.46-2.88-2.69-4.73-7.29-9.02-10.03-13.51-3.21-5.25-4.07-11.52-6.45-16.55-.89-1.88-2.89-3.84-3.87-5.63-6.44-11.69-7.05-26.94-16.58-37.41-2.22-2.44-3.63-3.3-6.97-3.77.54,2.62-1.77,3.45-2.72,5.03-5.58,9.23-10.14,17.62-13.74,27.75-1.87,5.25-6.37,9.85-8.92,14.57-6.61,12.24-13.15,22.86-17.83,36.16-1.89,5.37-1.8,7.98-5.74,12.76-.78.94-2.3.96-2.53,2.51-.28,1.91,1.07,2.42,1.39,3.6,2.5,9.27,5.68,16.35,10.53,24.96,5.31,9.44,8.52,28.25,11.31,39.18,2.76,10.83,6.34,17.21,3.24,29.2-.43,1.66-2.86,4.74-3.25,6.81-2.8.72-6.89-7.39-8.5-9.5-2.38-3.12-6.01-6.71-8.14-9.85-8.66-12.73-11.19-29.25-15.93-43.56-1.01-3.05-3.43-7.34-3.9-9.6-.34-1.62-.04-3.15-.35-4.65-.83-4.01-2.93-7.3-3.38-11.37l-1.85,3.89c-5.42,18.13-12.79,35.73-21.39,52.59-2.97,5.81-5.72,12.83-10.24,17.75-2.41,2.62-4.93,2.93-8.39,1.93-.8-.23-7.49-4.46-8.33-5.16-1.42-1.19-3.04-3.38-3.26-5.24-.54-4.53-.27-13.28-.01-18.04.55-10.05,5.2-18.58,9.93-27.06,4.25-7.61,5.97-16.15,9.47-24.02,1.15-2.58,3.49-4.47,4.09-7.37-.1-.44-4.23-2.36-5.03-3-10.83-8.57-13.8-21.93-21.09-33.13-5.21-8.01-12.5-16.9-15.47-26.26-.86-2.71-1.22-5.62-1.86-8.39l-7.09,10.65c-5.18,11.24-14.81,22.5-23.13,31.85-1.72,1.93-10.65,10.52-11.04,11.97-.14.51.68,7.73.91,8.65,1.54,6.31,3.74,12.45,4.4,19.09.79,7.95-1.41,15.26-5.13,22.17-2.79.19-5.51.58-7.91-1.12-5.76-4.08-9.41-11.6-13.46-17.16-2.67-3.67-7.16-12.39-7.88-17.48-.32-2.27.11-4.58-.18-6.82-1.09-8.15-3.22-15.5-2.96-24.08.21-6.81,4.89-13.53,8.1-19.4,5.8-10.59,11.08-19.34,14.67-31.31,4.17-13.89,10.95-28.08,19.49-39.99,3.85-5.37,7.96-9.96,11.38-15.59,2.99-4.92,10.34-10.05,16.12-10.89,5.04-.74,12.06-.04,16.82-1.67,1.01-.34,1.66-1.69,2.7-2.3,4.87-2.86,8.12-2.01,13.58-2.16,2.19-6.42,9.92-10.49,9.96-17.82-4.65-3.65-11.22-6.72-15.4-10.84-7.74-7.64-14.84-23.69-15.49-34.49-.71-11.76,3.54-17.58,7.4-27.63s5.8-21.74,15.91-27.08c7.5-3.96,20.24-6.05,26.35-10.63,1.52-1.14,2.57-4.22,5.68-2.77ZM280.69,49l-.66-.08c-.76.29-2.03,2.06-2.64,2.47-10.01,6.72-24.99,7.28-32.93,16.19-.49.54-2.94,3.25-3.08,3.44-.09.14-.13,2.3-.52,3.23-2.63,6.38-4.72,12.48-7.58,18.79-1.8,3.98-4.7,11.19-5.3,15.6-1.7,12.39,6.53,32.63,15.8,41.02,4.54,4.11,11.06,7.39,16.16,10.82,1.72,1.16,3.81,3.68,5.54,4.45,5.19,2.33,23.73,4.52,28.44,1.9,1.24-.69,7.21-6.1,8.57-7.42,5.64-5.48,11.86-12.13,17-17.98,3.81-4.33,10.07-8.82,11.96-14.03,1.66-4.57,3.62-16.58,3.24-21.24-.55-6.82-3.56-15.31-7.97-20.52-5.1-6.03-15.1-16.34-21.03-21.45-2.65-2.29-7.25-3.87-9.95-6.05-3.45-2.8-4.45-7.22-9.87-8.11-1.79-.29-4.96.63-5.2-1.03ZM305.74,159.41c-.42-.39-5.14,3.07-4.78,3.98-4.67,2.26-4.71,5.52-10.46,6.01-6.97.59-20.33-.23-26.57-3.39-.81-.41-4.73-4.04-5.14-3.6-.21,7.2-7.26,10.61-9.49,16.49,2.11.24,5.38.2,7.29.96,1.46.59,4.09,3.88,6.56,4.44s13.59.87,16.38.6c6.31-.62,12.32-3.62,18.14-5.35,4.92-1.46,10.13-2.62,15.09-3.65.42-2.05-1.41-2.91-2.2-4.55-1.84-3.8-3.38-7.97-4.8-11.95ZM309.59,326.76c4.44-6.14,4.88-11.29,7.39-18.36,4.35-12.26,14.38-26.59,21.32-38.16,3.51-5.85,5.48-13.25,8.81-19.68,5.75-11.11,13.41-18.74,14.11-31.88.49-9.15-.06-15.73-6.26-22.78-5.22-5.92-17.88-18.5-25.54-19.44-9.85-1.21-16.17.27-25.3,3.06-7.2,2.2-16.02,6.14-23.61,6.87-4.33.42-14.03.02-18.37-.63-2.36-.35-5.13-3.91-8.36-2.87-.43-1.79.6-1.03,1-1.99-5.84-.08-14.86-2.1-19.86,1.37-1.21.84-.88,1.58-1.48,2.15-8.73,8.22-15.92,13.4-17.56,26.29-2.12,16.63.53,52.74,8.15,67.72,4.57,8.99,11.97,17.67,16.67,26.31,5.22,9.61,7.98,19.18,16.82,26.16,8.26,6.52,29.76,7.2,39.64,4.66,4.89-1.25,7.34-3.66,10.31-7.18.64-.76,1.82-1.25,2.11-1.64ZM411.76,315.31c.28.28,1.8.34,2.51.73,1.16.64,3.02,2.54,4,2.3,2.51-.61,3.8-4.98,4.25-7.3,1.73-8.75,1.58-33.89-.3-42.46-2.63-11.99-7.57-21.85-12.81-32.68-1.24-2.57-2.21-6.69-3.54-8.95-3.53-5.96-10.57-10.84-13.97-17.02-.98-1.77-1.25-3.85-2.45-5.54-7.3-10.23-20.16-21.33-32.42-24.55-4.31-1.13-12.77-2.82-17.13-3.36-1.71-.21-3.46,0-5.18-.06.25.98,1.92.26,2.99.75.47.21,7.11,5.68,8.01,6.49,3.25,2.91,7.87,7.49,10.74,10.75,6.79,7.71,6.79,15.36,6.26,25.28-.21,3.91-.64,7.77-2.52,11.22,2.35-.16,4.38-.06,6.25,1.5.59.49,5.87,7.17,6.16,7.83,2.21,4.94,5.05,10.76,6.83,16.16,1.2,3.62,1.46,7.64,3.12,11.38,1.45,3.27,4.82,6.85,6.22,9.78.93,1.96.99,4.61,1.63,6.37,3.13,8.68,9.31,16.77,15.08,23.66,1.2,1.44,5.32,5.08,5.69,5.68s.25,1.72.57,2.04ZM229.31,185.42c-5.64,1.07-12.81.03-18.11,2.12-8.21,3.25-11.45,9.28-16.08,15.9-8.17,11.66-16.33,22.73-22.14,35.84-5.3,11.94-6.97,23.48-13.69,35.32-1.33,2.35-1.26,2.89-2.31,5.17-2.55,5.53-8.54,11.97-10.27,18.22-1.62,5.84-.3,7.32,3.66,11.18,4.95,4.82,12.18,9.73,19.25,10.23,3.26.23,3.64.4,5.76-1.88,10.58-11.39,21.59-23.4,30.22-36.61,2-3.07,2.04-3.6,3.63-6.85s7.12-9.28,7.58-12.44c.34-2.38-1.2-5.9-1.48-8.47-.65-6.04-.71-12.9-.99-19.01-.62-13.41-2.45-27.26,5.47-38.48,2.78-3.94,6.16-6.85,9.49-10.24ZM173.86,320.91c-1.88-.07-3.8.15-5.69-.06-3.39-.37-9.77-2.95-12.77-4.72s-5.78-5.59-8.78-7.71c-.92,5.86,1.47,11.54,2.19,17.31,1.1,8.8.44,9.87,4.89,17.85,2.43,4.37,5.67,10.03,8.44,14.31,2.29,3.53,5.77,6,8.61,8.99,2.51.7,4.2,1.35,5.7-1.12,2.55-4.2,4.58-13.72,3.87-18.57-1.2-8.15-2.49-12.82-5.45-20.14-.85-2.1-1.28-3.81-1.01-6.14ZM402.52,351.26c1.67-1.35,5.58-5.87,6.37-7.86.87-2.17.95-9.68.76-12.23-.14-1.81-.88-3.61-1.01-5.49-.24-3.58.03-7.34.44-10.9l-3.66-3.9-1.26.78c-6.14,7.01-13.71,15.02-17.09,23.89-.59,1.55-.71,7.26-.02,8.75.39.83,6.96,6.07,8.01,6.49,1.71.68,6,1.67,7.47.48ZM308.95,339.72c-.49-1.49-.92-6.92-2.87-6.75-.85.07-2.55,1.94-3.57,2.46-3.25,1.67-7.11,2.53-10.76,2.48.2,1.79-.3,4.03.02,5.73.69,3.65,3.67,8.29,4.36,12.14.46,2.59-.08,4.17.98,7.02.7,1.9,2.56,3.81,3.03,5.46,3.43,11.91,6.02,23.77,10.48,35.51,2,5.27,6.12,10.5,9.19,14.81,1.35,1.9,3.3,3.59,4.63,5.36.93,1.24,4.94,8.22,6.02,7.97,2.18-3.66,3.44-7.99,3.75-12.26.55-7.54-2.46-13.15-4.26-20.22-1.08-4.24-2.04-8.61-3.1-12.9-1.69-6.88-4.82-20.09-8.02-25.97-3.55-6.51-7.69-14.19-9.88-20.85ZM290.25,338.42c-9.11.15-18.36-.08-27.18-2.52-.69.06-1.44,3.46-1.86,4.2-5.34,9.24-7.17,19.26-12.5,28.49-4.48,7.76-8.88,16.33-9.43,25.56-.22,3.74-.54,13.63.13,16.91.2.97,1.88,3.7,2.63,4.37.54.49,6.96,4.59,7.63,4.86,2.53,1.03,4.34,1.08,6.38-.85,3.94-3.73,9.56-15.59,12.16-20.83,6.96-14,13.19-29.74,18.07-44.41,1.84-5.53,2.1-7.34,2.99-13.01.15-.94,1.25-1.63.97-2.77Z" title="tracing" />
    <path id="id_3" class="cls-6" d="M309.59,327.35c-.28.39-1.47.88-2.11,1.64-2.97,3.52-5.42,5.93-10.31,7.18-9.88,2.54-31.39,1.86-39.64-4.66-8.84-6.98-11.6-16.55-16.82-26.16-4.7-8.65-12.1-17.32-16.67-26.31-7.62-14.98-10.27-51.09-8.15-67.72,1.64-12.89,8.84-18.06,17.56-26.29.6-.57.28-1.32,1.48-2.15,5-3.47,14.02-1.45,19.86-1.37-.4.96-1.43.2-1,1.99,3.24-1.04,6,2.51,8.36,2.87,4.34.65,14.04,1.05,18.37.63,7.59-.74,16.41-4.68,23.61-6.87,9.13-2.79,15.45-4.27,25.3-3.06,7.66.94,20.32,13.51,25.54,19.44,6.2,7.04,6.75,13.62,6.26,22.78-.7,13.14-8.36,20.77-14.11,31.88-3.33,6.44-5.3,13.84-8.81,19.68-6.94,11.57-16.97,25.9-21.32,38.16-2.51,7.07-2.95,12.22-7.39,18.36Z" title="torso" />
    <path id="id_4" class="cls-3" d="M280.69,49.59c.23,1.66,3.41.74,5.2,1.03,5.42.89,6.41,5.31,9.87,8.11,2.7,2.18,7.3,3.77,9.95,6.05,5.93,5.12,15.93,15.43,21.03,21.45,4.41,5.21,7.42,13.7,7.97,20.52.38,4.67-1.58,16.68-3.24,21.24-1.89,5.21-8.15,9.7-11.96,14.03-5.14,5.85-11.36,12.5-17,17.98-1.36,1.32-7.34,6.73-8.57,7.42-4.71,2.62-23.25.43-28.44-1.9-1.73-.78-3.82-3.29-5.54-4.45-5.1-3.44-11.62-6.71-16.16-10.82-9.27-8.39-17.5-28.63-15.8-41.02.6-4.42,3.5-11.63,5.3-15.6,2.85-6.31,4.94-12.42,7.58-18.79.38-.92.43-3.09.52-3.23.13-.2,2.59-2.9,3.08-3.44,7.93-8.91,22.91-9.47,32.93-16.19.62-.41,1.89-2.18,2.64-2.47l.66.08Z" title="head" />
    <path id="id_5" data-name="left arm" class="cls-1" d="M229.31,186.01c-3.33,3.39-6.71,6.3-9.49,10.24-7.92,11.22-6.09,25.07-5.47,38.48.28,6.11.34,12.98.99,19.01.28,2.57,1.82,6.09,1.48,8.47-.46,3.15-5.98,9.19-7.58,12.44s-1.63,3.79-3.63,6.85c-8.63,13.21-19.64,25.22-30.22,36.61-2.11,2.28-2.5,2.11-5.76,1.88-7.06-.5-14.29-5.42-19.25-10.23-3.96-3.86-5.28-5.34-3.66-11.18,1.73-6.25,7.72-12.68,10.27-18.22,1.05-2.27.98-2.81,2.31-5.17,6.72-11.84,8.39-23.37,13.69-35.32,5.82-13.11,13.97-24.18,22.14-35.84,4.64-6.62,7.88-12.66,16.08-15.9,5.29-2.09,12.46-1.05,18.11-2.12Z" title="left_arm" />
    <path id="id_6" data-name="right arm" class="cls-5" d="M411.76,315.89c-.32-.32-.22-1.46-.57-2.04s-4.49-4.24-5.69-5.68c-5.77-6.88-11.96-14.98-15.08-23.66-.64-1.77-.69-4.41-1.63-6.37-1.39-2.93-4.76-6.51-6.22-9.78-1.66-3.74-1.92-7.75-3.12-11.38-1.78-5.4-4.63-11.22-6.83-16.16-.29-.66-5.57-7.34-6.16-7.83-1.87-1.56-3.9-1.66-6.25-1.5,1.88-3.46,2.31-7.31,2.52-11.22.53-9.91.53-17.57-6.26-25.28-2.87-3.26-7.49-7.84-10.74-10.75-.9-.81-7.54-6.27-8.01-6.49-1.07-.49-2.74.22-2.99-.75,1.71.06,3.47-.15,5.18.06,4.36.54,12.82,2.23,17.13,3.36,12.26,3.22,25.12,14.33,32.42,24.55,1.21,1.69,1.48,3.77,2.45,5.54,3.4,6.17,10.44,11.05,13.97,17.02,1.34,2.26,2.3,6.38,3.54,8.95,5.24,10.83,10.18,20.69,12.81,32.68,1.88,8.57,2.03,33.71.3,42.46-.46,2.32-1.74,6.68-4.25,7.3-.98.24-2.84-1.66-4-2.3-.72-.4-2.23-.45-2.51-.73Z" title="right_arm" />
    <path id="id_7" data-name="left leg" class="cls-7" d="M290.25,339c.28,1.14-.83,1.83-.97,2.77-.9,5.67-1.15,7.47-2.99,13.01-4.88,14.68-11.12,30.41-18.07,44.41-2.6,5.24-8.23,17.1-12.16,20.83-2.04,1.93-3.85,1.88-6.38.85-.68-.27-7.09-4.37-7.63-4.86-.74-.68-2.43-3.41-2.63-4.37-.67-3.27-.36-13.17-.13-16.91.55-9.23,4.95-17.8,9.43-25.56,5.33-9.23,7.16-19.25,12.5-28.49.43-.74,1.17-4.14,1.86-4.2,8.82,2.44,18.07,2.67,27.18,2.52Z" title="left_leg" />
    <path id="id_8" data-name="right leg" class="cls-2" d="M308.95,340.3c2.19,6.66,6.33,14.34,9.88,20.85,3.2,5.88,6.33,19.09,8.02,25.97,1.06,4.29,2.02,8.66,3.1,12.9,1.8,7.07,4.81,12.68,4.26,20.22-.31,4.27-1.56,8.59-3.75,12.26-1.08.25-5.09-6.73-6.02-7.97-1.33-1.77-3.28-3.46-4.63-5.36-3.06-4.3-7.18-9.54-9.19-14.81-4.46-11.74-7.06-23.6-10.48-35.51-.47-1.65-2.33-3.56-3.03-5.46-1.06-2.85-.51-4.43-.98-7.02-.69-3.85-3.67-8.49-4.36-12.14-.32-1.7.18-3.94-.02-5.73,3.65.05,7.51-.82,10.76-2.48,1.02-.52,2.72-2.39,3.57-2.46,1.95-.16,2.39,5.27,2.87,6.75Z" title="right_leg" />
    <path id="id_9" data-name="left hand" class="cls-1" d="M173.86,321.5c-.27,2.33.16,4.03,1.01,6.14,2.96,7.33,4.25,11.99,5.45,20.14.71,4.85-1.32,14.37-3.87,18.57-1.5,2.47-3.19,1.82-5.7,1.12-2.84-2.99-6.32-5.46-8.61-8.99-2.78-4.28-6.01-9.94-8.44-14.31-4.44-7.98-3.79-9.05-4.89-17.85-.72-5.77-3.11-11.45-2.19-17.31,3,2.13,5.7,5.9,8.78,7.71s9.37,4.35,12.77,4.72c1.88.21,3.8-.02,5.69.06Z" title="left_hand" />
    <path id="id_10" class="cls-3" d="M305.74,160c1.42,3.98,2.96,8.15,4.8,11.95.79,1.63,2.62,2.5,2.2,4.55-4.96,1.03-10.17,2.19-15.09,3.65-5.82,1.73-11.83,4.73-18.14,5.35-2.78.27-13.86-.03-16.38-.6s-5.09-3.85-6.56-4.44c-1.91-.76-5.18-.72-7.29-.96,2.24-5.88,9.28-9.29,9.49-16.49.41-.44,4.33,3.19,5.14,3.6,6.24,3.16,19.6,3.98,26.57,3.39,5.75-.49,5.79-3.76,10.46-6.01-.36-.91,4.36-4.37,4.78-3.98Z" title="neck" />
    <path id="id_11" data-name="right hand" class="cls-4" d="M402.52,351.85c-1.47,1.19-5.76.2-7.47-.48-1.05-.41-7.62-5.65-8.01-6.49-.69-1.48-.57-7.2.02-8.75,3.38-8.87,10.95-16.89,17.09-23.89l1.26-.78,3.66,3.9c-.41,3.56-.68,7.31-.44,10.9.13,1.88.87,3.69,1.01,5.49.19,2.54.11,10.05-.76,12.23-.8,1.99-4.7,6.51-6.37,7.86Z" title="right_hand" />
  </g>
</svg>